<svg xmlns="http://www.w3.org/2000/svg" version="1.1" xmlns:xlink="http://www.w3.org/1999/xlink" xmlns:svgjs="http://svgjs.dev/svgjs" width="100%" height="100%" viewBox="0 0 1000 600"><rect width="1000" height="600" x="0" y="0" fill="#f4a950"/><g><rect width="333.3333333333333" height="333.3333333333333" rx="13.333333333333334" ry="13.333333333333334" y="266.9924094859759" fill="#161b21" transform="matrix(0.5106832882551156,0,0,0.5106832882551156,0,78.53760521951558)" x="244.7702941894531"/><path d="M472.9425720650028 508.65907106863943L379.1691452204811 508.65907106863943L378.7318274403934 508.2217532885517L349.9313279231885 502.13054135161576L349.9313279231885 358.6590724985551L445.9538176367327 358.6590724985551L463.9463205889128 378.90063831975766L380.9808903094159 378.90063831975766L380.9808903094159 422.07015061127294L436.95756616064267 422.07015061127294L454.95006911282275 442.3117164324755L381.19954919945974 442.3117164324755L381.19954919945974 488.41750524743685L454.95006911282275 488.41750524743685L472.9425720650028 508.65907106863943Z " fill="#f4a950" transform="matrix(0.5106832882551156,0,0,0.5106832882551156,0,78.53760521951558)"/><path d="M772.1482214553248 502.37568823861665L687.7512569977507 502.37568823861665L687.3576668903536 501.9820981312195L661.4369469603458 496.49995020676016L661.4369469603458 367.3742814014178L747.8580891131049 367.3742814014178L764.0515106745848 385.59188065808274L689.3818445855386 385.59188065808274L689.3818445855386 424.4448469739946L739.761378332365 424.4448469739946L755.9547998938449 442.66244623065944L689.5786396392372 442.66244623065944L689.5786396392372 484.1580889819517L755.9547998938449 484.1580889819517L772.1482214553248 502.37568823861665ZM817.692219596987 502.1788931849181L817.692219596987 502.1788931849181L817.4954245432884 502.1788931849181L789.3537318643972 496.30315515306165L789.3537318643972 367.5710764551164L789.5786404971955 367.76787150881495L789.5786404971955 367.5710764551164Q798.265736439031 364.7316049660374 825.3953402703298 364.33801485864035Q852.5249441016286 363.9163111721435 860.6216548823686 368.161461616212L860.6216548823686 368.161461616212Q881.8755206818109 382.94920422270235 916.2865414999558 422.4206692788096L916.2865414999558 422.4206692788096Q918.3107191951407 424.83843708139165 919.5196030964318 431.7262639608406Q920.7284869977228 438.6140908402895 919.5196030964318 448.34138920881736Q918.3107191951407 458.0405739982454 914.6559539121678 467.9646674204718Q911.0293022082948 477.8887608426982 901.9205025799623 487.1943555247292Q892.8117029516299 496.49995020676016 879.6545479329275 501.56039444472265L879.6545479329275 501.56039444472265Q867.5094817618175 505.8055448887912 850.3039713527451 505.7212041514918Q833.0984609436726 505.6087498350926 817.692219596987 502.1788931849181ZM878.8392541390334 399.9579195780762L878.8392541390334 399.9579195780762Q871.754632205886 394.0821815462198 863.9671707952438 390.84911994974374Q856.1515958055018 387.61605835326776 847.1552504935685 387.11001392947145Q838.1589051816352 386.60396950567525 832.4799622034773 386.9975596130723Q826.8010192253195 387.3911497204694 817.2986294895899 388.6281472008602L817.2986294895899 388.6281472008602L817.692219596987 490.03382701380815Q831.6646684095834 491.8612096552946 844.4282333208887 487.897195002224Q857.1636846530943 483.96129392825316 866.2724842814267 476.06137820121177Q875.3812839097592 468.1614624741704 881.6787256281124 457.7313246281477Q887.9480537673659 447.32930036122485 889.8597771461517 436.78670819880307Q891.7996141040373 426.272229615481 889.156937668657 416.3481361932546Q886.5142612332766 406.4240427710282 878.8392541390334 399.9579195780762ZM1033.8856428743838 462.7074281288108L1033.8856428743838 367.3742814014178L1062.027335553275 375.66778723585634L1062.027335553275 470.3824352230539Q1062.027335553275 481.9371162330682 1044.203326404007 495.17861198907Q1026.407430833839 508.4482213241716 1006.3624489356877 508.4482213241716L1006.3624489356877 508.4482213241716Q994.4141778182762 508.4482213241716 976.8150773018068 496.30315515306165Q959.1878632062376 484.1580889819517 944.428234178847 467.76787236677325L944.428234178847 467.76787236677325Q944.2033255460486 467.57107731307474 944.0065304923502 464.53481077029727Q943.8097354386516 461.49854422751974 943.6972811222524 456.6348950432559Q943.612940384953 451.7712458589919 943.5004860685539 445.3051226660399Q943.4161453312546 438.81088589398803 943.4161453312546 431.7262639608406Q943.4161453312546 424.64164202769314 943.4161453312546 417.05097567074944Q943.4161453312546 409.46030931380574 943.5004860685539 402.4881416970574Q943.612940384953 395.48786050120935 943.612940384953 389.0217373082573Q943.612940384953 382.5556141153053 943.6972811222524 377.88875998473986Q943.8097354386516 373.2219058541745 943.8097354386516 370.41054794419534L943.8097354386516 370.41054794419534L943.8097354386516 367.3742814014178Q943.8097354386516 367.5710764551164 950.7819030554 369.5952541503014Q957.7821842512479 371.61943184548636 964.6700111306969 373.6436095406713L964.6700111306969 373.6436095406713L971.7546330638444 375.66778723585634Q970.9393392699504 477.2702621025028 971.9514281175428 478.47914600379386L971.9514281175428 478.47914600379386Q980.2449339519814 487.39115057842776 993.2896346542847 487.70039994852544Q1006.3624489356877 488.0096493186232 1017.8890163666023 480.9250273854757Q1029.4436973766165 473.84040545232824 1033.8856428743838 462.7074281288108L1033.8856428743838 462.7074281288108ZM1161.2120426173392 367.5710764551164L1191.1530043586172 375.8645822895549L1191.5747080451142 508.251426270473L1161.2120426173392 502.37568823861665L1161.2120426173392 367.5710764551164ZM1218.4794032436148 405.60874897713427L1244.7937132810193 411.2876919552922L1244.7937132810193 419.58119778973065Q1262.8145174839856 402.7973910671551 1276.393376189185 403.5845712819493L1276.393376189185 403.5845712819493Q1282.859499382137 404.0062749684462 1299.165375260016 419.69365210612983Q1315.4431375587951 435.3810292438135 1316.4552264063877 441.03185864287155L1316.4552264063877 441.03185864287155Q1317.2705202002817 446.31721151363234 1317.2705202002817 508.251426270473L1317.2705202002817 508.251426270473L1292.165094064168 502.57248329231516Q1293.3739779654588 433.16005649492996 1291.1530052165754 429.11170110456L1291.1530052165754 429.11170110456Q1287.5263535127024 422.22387422511105 1279.120393361865 424.9508913977908Q1270.714433211027 427.6779085704706 1261.718087899094 434.76253050361805Q1252.6936290080607 441.8471524367655 1244.7937132810193 451.37765575159483L1244.7937132810193 451.37765575159483L1244.7937132810193 508.251426270473L1218.4794032436148 502.57248329231516L1218.4794032436148 405.60874897713427ZM1410.7762842861885 412.29978080288464L1410.7762842861885 412.29978080288464L1408.555311537305 423.23596307270356Q1388.93203332565 418.7659039958367 1382.6627051863966 419.58119778973065L1382.6627051863966 419.58119778973065Q1372.7386117641704 420.79008169102167 1367.0596687860125 429.1960418418593Q1361.4088393869542 437.602001992697 1363.0113133956424 445.3051226660399L1363.0113133956424 445.3051226660399Q1363.4330170821395 447.10439172842655 1372.3169080776734 444.883418979543Q1381.2289126523074 442.66244623065944 1391.7715048147293 440.3290191653768Q1402.2859833980515 437.9955921000941 1405.322249940829 439.626179687882L1405.322249940829 439.626179687882Q1419.294698753425 446.907596674728 1424.158347937689 458.85586779213935Q1428.9938835428534 470.8041389095508 1425.2547775225808 481.6278668629705Q1421.5156715023086 492.45159481639024 1409.9891040713942 500.35151054343163Q1398.4344230613797 508.251426270473 1382.2410014999 508.251426270473L1382.2410014999 508.251426270473Q1368.887051427499 508.251426270473 1357.4448247338837 500.8575549672278Q1346.0025980402688 493.4636836639827 1330.6244702726826 478.70405463659216L1330.6244702726826 478.70405463659216L1334.2792355556558 471.8162277571433Q1348.0267757354536 482.1339112867667 1363.4330170821395 485.6762222533404Q1378.8111448497252 489.21853321991415 1392.0526406057274 482.9492050806607Q1405.322249940829 476.6798769414072 1409.7641954385958 459.86795663973186L1409.7641954385958 459.86795663973186Q1409.9891040713942 459.0526628458379 1407.964926376209 459.2494578995364L1407.964926376209 459.2494578995364Q1405.7158400482258 459.4743665323348 1396.831949052692 461.8921343349169L1396.831949052692 461.8921343349169Q1368.6902563738004 469.3703463754614 1360.9871357004577 466.3340798326839L1360.9871357004577 466.3340798326839L1359.159753058971 465.3219909850914Q1348.0267757354536 456.8316900969544 1341.1670624351045 446.7108016210295L1341.1670624351045 446.7108016210295Q1336.1066181971423 439.82297474158054 1337.0062527283353 432.14796764733745Q1337.9058872595288 424.4448469739946 1342.1791512826971 418.06306451834195Q1346.4243017267654 411.68128206268926 1354.9146026149024 407.5485859350199Q1363.4330170821395 403.38777622825074 1373.5539055580643 403.38777622825074L1373.5539055580643 403.38777622825074Q1376.5901721008418 403.38777622825074 1382.1566607626005 404.5966601295418Q1387.7231494243592 405.83365760993263 1397.9283786375836 408.7574698363109Q1408.1617214299076 411.68128206268926 1410.7762842861885 412.29978080288464ZM1459.9750477108232 393.26688775232583L1459.9750477108232 393.26688775232583Q1449.6573641812001 388.4032385680619 1444.5969199432375 378.5072587249353L1444.5969199432375 378.5072587249353Q1444.9905100506344 375.24608354935947 1450.6694530287923 370.185639311397Q1456.3202824278505 365.12519507343455 1459.778252657125 364.33801485864035L1459.778252657125 364.33801485864035Q1470.0959361867485 368.97675541010597 1474.9595853710125 378.7040537786338L1474.9595853710125 378.7040537786338Q1471.501615141738 387.3911497204694 1459.9750477108232 393.26688775232583ZM1446.817892692121 405.60874897713427L1472.1201138819333 411.2876919552922L1472.1201138819333 508.251426270473L1446.817892692121 502.57248329231516L1446.817892692121 405.60874897713427ZM1529.1906794545098 492.0580047089931L1529.1906794545098 492.0580047089931Q1545.1873059622912 500.15471548973306 1567.8749642958232 484.1580889819517L1567.8749642958232 484.1580889819517L1567.8749642958232 427.28431846307353Q1561.9992262639666 423.82634823379914 1551.4566341015448 422.6174643325081L1551.4566341015448 422.6174643325081Q1543.1631282671065 421.8021705386142 1535.263212540065 431.02342448334576Q1527.3914103921234 440.2446784280774 1523.3430550017533 452.38974459918734Q1519.2946996113833 464.53481077029727 1520.3911291962754 476.37062757130946Q1521.5156723602672 488.2064443723217 1529.1906794545098 492.0580047089931ZM1567.8749642958232 416.3481361932546L1567.8749642958232 358.6590718804825L1593.1771854856356 364.33801485864035Q1594.3860693869265 500.970009283627 1593.1771854856356 502.1788931849181L1593.1771854856356 502.1788931849181Q1592.165096638043 502.37568823861665 1582.747047639613 504.51232025020073Q1573.3289986411828 506.62083868268513 1570.6863222058023 507.04254236918194Q1568.0717593495215 507.4361324765791 1559.8625942523827 508.251426270473Q1551.681542734343 509.06672006436696 1546.9022342873786 508.251426270473Q1542.1510394195138 507.4361324765791 1535.0664174863664 505.52440909779324Q1527.981795553219 503.5845721399076 1521.5156723602672 499.9579204360345L1521.5156723602672 499.9579204360345Q1509.9609913502527 493.66047871768126 1503.6916632109992 484.5516790893488Q1497.4223350717457 475.4428794610164 1497.0287449643488 465.9404897252868Q1496.6070412778517 456.4380999895573 1499.2497177132323 446.5983473046303Q1501.8642805695126 436.78670819880307 1507.6556778640697 428.60565668076373Q1513.4189615795271 420.3964915836246 1519.997539088878 414.1271634443711Q1526.5761165982294 407.8578353051176 1533.8575335850755 405.102704553338Q1541.1389505719217 402.37568738065823 1546.8178935500791 404.2030700221447L1546.8178935500791 404.2030700221447Q1549.43245640636 405.01836381603863 1552.3843822118379 406.5364970874274Q1555.3081944382166 408.05463035881615 1557.2480313961019 409.2635142601072Q1559.159754774888 410.4723981613982 1562.7020657414614 412.9182795430801Q1566.2443767080354 415.33604734566217 1567.8749642958232 416.3481361932546L1567.8749642958232 416.3481361932546ZM1639.9300675285886 462.0889293886154L1639.9300675285886 462.0889293886154L1685.867655777648 430.71417511324813Q1671.3048218039562 421.4085804312171 1661.0714790116322 423.82634823379914Q1650.8662497984078 426.272229615481 1645.384101873948 436.4774588287053Q1639.9300675285886 446.7108016210295 1639.9300675285886 462.0889293886154ZM1660.3686395341374 469.98884511565683L1644.5688080800546 481.5154125465713Q1650.247751058212 488.4032394260202 1657.3323729913595 490.03382701380815Q1664.4169949245074 491.6363010224963 1672.2044563351492 488.0939900559225Q1679.9919177457914 484.5516790893488 1685.2772706165524 481.0093681227751Q1690.5345099082133 477.46705715620135 1697.6191318413607 471.6194327034447L1697.6191318413607 471.6194327034447L1701.6674872317308 475.6677880938147Q1705.5190475684026 479.91293853788324 1709.3424943259738 484.1580889819517L1709.3424943259738 484.1580889819517L1713.3908497163438 488.2064443723217Q1695.7917491998742 501.1668043373256 1683.6466830287645 505.52440909779324Q1671.5016168576544 509.8539002791611 1659.553345740243 505.41195478139406L1659.553345740243 505.41195478139406Q1642.1510402774725 498.72092295564374 1626.7729125098863 481.9371162330682L1626.7729125098863 481.9371162330682Q1617.664112881554 471.8162277571433 1616.2303203474644 457.956233260946Q1614.8246413924749 444.0681251856491 1619.7726313140383 432.14796764733745Q1624.7487348147015 420.1996965299261 1635.1788726607242 411.79373637908844Q1645.5808969276468 403.38777622825074 1657.9508717315553 403.38777622825074L1657.9508717315553 403.38777622825074Q1666.0475825122949 403.38777622825074 1681.9317547036771 413.8179140742734Q1697.8159268950594 424.24805192029606 1708.3304054783816 434.1721453425224L1708.3304054783816 434.1721453425224Q1708.133610424683 434.76253050361805 1692.2494382333007 446.5983473046303Q1676.3652660419184 458.4622776847423 1660.3686395341374 469.98884511565683L1660.3686395341374 469.98884511565683Z " fill="#161b21" transform="matrix(0.5106832882551156,0,0,0.5106832882551156,0,78.53760521951558)"/></g></svg>